PathFileType	4	(X/Y/Z)	Patient4_TMGait_0pt6_02_right_26.trc.trc
DataRate	CameraRate	NumFrames	NumMarkers	Units	OrigDataRate	OrigDataStartFrame	OrigNumFrames
80.000000000000	80.000000000000	4	33	mm	80.000000000000	18	       141
Frame#	Time	Sacral			L.Shoulder			Chest			R.Shoulder			Neck			R.ASIS			L.ASIS			R.Thigh.Superior			R.Thigh.Lateral			R.Thigh.Inferior			R.Patella			L.Thigh.Superior			L.Thigh.Lateral			L.Thigh.Inferior			L.Patella			L.Shank.Superior			L.Shank.Lateral			L.Shank.Inferior			R.Shank.Superior			R.Shank.Lateral			R.Shank.Inferior			R.Heel			R.Midfoot.Superior			R.Midfoot.Lateral			R.Toe			L.Heel			L.Midfoot.Lateral			L.Midfoot.Superior			L.Toe			L.Elbow			L.Wrist			R.Elbow			R.Wrist			
		X1	Y1	Z1	X2	Y2	Z2	X3	Y3	Z3	X4	Y4	Z4	X5	Y5	Z5	X6	Y6	Z6	X7	Y7	Z7	X8	Y8	Z8	X9	Y9	Z9	X10	Y10	Z10	X11	Y11	Z11	X12	Y12	Z12	X13	Y13	Z13	X14	Y14	Z14	X15	Y15	Z15	X16	Y16	Z16	X17	Y17	Z17	X18	Y18	Z18	X19	Y19	Z19	X20	Y20	Z20	X21	Y21	Z21	X22	Y22	Z22	X23	Y23	Z23	X24	Y24	Z24	X25	Y25	Z25	X26	Y26	Z26	X27	Y27	Z27	X28	Y28	Z28	X29	Y29	Z29	X30	Y30	Z30	X31	Y31	Z31	X32	Y32	Z32	X33	Y33	Z33	

18	31.392500000000	859.958342312400	1004.369905006089	419.414522320735	1059.076213319179	1420.249448781113	227.625879913535	1151.038229802412	1354.249667483921	395.001758742735	1063.353465043706	1443.407311855561	558.619201820822	1055.355476483721	1487.890934411666	374.265902525425	1080.265631039508	940.517436404601	546.462221417070	1078.432639808058	957.847439103965	271.112756541432	1162.020075168926	779.337951339622	522.963315693536	1126.729009813250	652.647494396142	594.550013119494	1222.196214648861	624.768980397450	518.723433903592	1261.806501718165	543.101764787777	534.440723319709	1090.105696297921	734.920188799764	302.640921893400	979.692806179149	636.846276640234	236.175476551041	1039.632693205864	545.691218866023	303.833668199422	1025.597143094891	479.451845269695	313.244381284883	995.832505546230	411.374357145784	303.490537289830	898.264763424236	304.123567694839	250.613158926964	938.671808282598	190.407850489586	325.304887608245	1251.435326825260	453.111910677942	541.119198541960	1203.725219959064	335.917370230622	602.223018094206	1277.926702933026	254.693054868429	549.961560813249	1197.916069942305	60.816360362675	519.642493203360	1354.650219413368	147.424168690720	560.514975989976	1283.832477020893	62.672345825784	590.991412505615	1481.948159271543	119.725476010737	580.741385284378	802.405674095290	38.781857907671	368.912660937564	874.190442356845	34.954901878499	286.376543991898	958.071563747932	96.020161711384	312.152905495623	1085.836789836314	45.073927274066	281.116782702670	1099.680518266627	1080.000427143929	93.064302600296	1341.395125892470	993.771666030483	124.808415424839	899.546628075713	1157.380707164441	700.272118700260	851.512589813554	906.386807550716	752.903385588337	
19	31.405000000000	862.459726179305	1002.336067002789	421.315223211019	1059.312346613488	1419.027994913913	229.859419977704	1151.364726296414	1353.665704439068	397.396662858539	1062.752413497950	1442.530546396710	560.760714682728	1054.830075367233	1486.572014888456	376.358492768120	1082.705611544059	938.676425648742	548.596526400842	1080.933522077005	956.545032685552	273.273616047393	1163.334489291824	775.513042525770	525.482709479639	1125.101396289313	648.379098260753	595.194806668964	1221.198175653036	620.193196068743	520.532313471378	1258.958110118040	538.326086873171	535.333183482498	1089.435161387867	732.991309745961	304.085258130699	977.464634864808	636.450626831295	237.143006506157	1035.789731618972	544.370171000684	304.633185108312	1020.912520477240	478.335554635568	313.834415020483	990.611427992934	410.592260249447	303.992276487147	892.117543580640	304.164545521220	251.067889910896	931.763130510374	190.004663609454	325.515631578160	1248.447981372366	448.149265208467	541.591637182977	1199.509721402360	330.711459878450	600.983560794017	1274.259081288308	249.724265923161	549.211019555421	1194.010104436144	56.823792449765	516.474184946571	1350.501791929331	142.138601448652	559.567740909653	1278.873232577289	58.139866424207	589.048293262614	1477.414000716130	113.765165213397	581.675308352619	794.816715401613	38.617246012267	368.940447855881	866.598520615420	34.873558162512	286.416604036076	950.485032753376	95.952823739380	312.227117613478	1078.239977191527	44.998801299525	281.106786687041	1097.727896698207	1078.275727719182	95.724206582797	1341.296623688090	999.448632369894	128.777873129517	897.149065039882	1158.118625971616	702.408688450789	850.736052403109	906.548824161060	754.248458738617	
20	31.417500000000	865.089251168162	1000.147863716911	423.426458364805	1059.478447213344	1417.661781228691	232.263413748218	1151.748044493904	1352.975671608326	399.923607554632	1062.176843567753	1441.422229024530	563.090494746512	1054.257276843387	1485.100959213783	378.641725462024	1085.428869714707	936.655069480010	550.740741025808	1083.540857109428	954.949131178726	275.473744307254	1165.084942499132	771.397485148394	527.823185014071	1123.711764920116	644.035787177435	595.611878843983	1220.232938550583	615.402257265779	521.918311290673	1256.028235731387	533.156990888527	535.795086912311	1089.146721215234	730.944940226027	305.414247458100	975.611075336968	635.892004189689	238.255385699068	1032.542287644392	542.911399130851	305.452081832349	1016.862622371698	476.969628152203	314.502054018010	985.897880502586	409.601821595587	304.591161472676	886.284234919141	304.172200433845	251.629408596959	924.989872929562	189.481968393656	325.762237772848	1245.055240125876	442.742498321099	541.764733811572	1194.532354177141	325.311541559309	599.637727591223	1269.313087243103	244.216605173395	548.241464532010	1187.740256987358	52.985321861399	513.502284158869	1344.577927585778	136.039282092979	558.332613969208	1271.637613949906	53.495023780120	587.202584649855	1470.937769372782	106.130595939812	582.219116937344	787.221035095158	38.384135077853	368.957855687307	859.021585359468	34.736087875528	286.462377005588	942.918278674855	95.851066556815	312.310486974317	1070.696258894261	44.852711016340	281.083474361280	1095.570381986565	1076.295629258799	98.650378328197	1340.607842291988	1004.082525443916	132.844002288451	895.487661881805	1157.962031345722	704.422243561402	851.073153914562	905.707005718548	755.592976624662	
21	31.430000000000	867.781296288835	997.874775022129	425.718983830017	1059.596469849094	1416.193531286684	234.838657783868	1152.213036990859	1352.195984391002	402.578453094723	1061.680843614296	1440.100274636798	565.619064372914	1053.700476148204	1483.527903421852	381.129782400596	1088.367187540526	934.521995535830	552.882061712349	1086.215634339984	953.134444784253	277.690101557826	1167.172274104343	767.072139505897	529.958662347300	1122.565131458643	639.761927163443	595.873460177385	1219.263859461230	610.543146750877	522.874614573414	1253.041283605203	527.799990588183	535.840790106904	1089.318660969676	728.823049930489	306.670874965932	974.233197115966	635.161159373429	239.557718683235	1030.016069354827	541.317507572710	306.356639169527	1013.589094933513	475.321082035288	315.304851041984	981.800996141290	408.385598799727	305.333588374597	880.857003415653	304.164679391068	252.326749150893	918.394431489467	188.844180514180	326.062193917670	1241.397717081728	437.136830980727	541.658291132592	1189.143259825170	319.904247107275	598.278600051751	1263.508088771269	238.443108762366	547.079777188447	1179.730454531484	49.458777950405	510.835416655058	1337.445760710935	129.476595944119	556.805705665005	1262.802282855470	48.999350163305	585.503186538895	1463.127707090402	97.313152393119	582.255331136118	779.619448227786	38.124260529116	368.955215921975	851.466402439450	34.552437908623	286.511347480082	935.395710268698	95.715185950344	312.393562176880	1063.219151994603	44.621870013117	281.043662268392	1093.214001806097	1074.103310672503	101.828782810280	1339.388159501018	1007.591792760746	136.975796963032	894.664656385558	1156.863546067701	706.330659999608	852.545127249807	903.871772170029	756.933599613868	
